<svg width="42" height="42" viewBox="0 0 42 42" fill="none" xmlns="http://www.w3.org/2000/svg">
<rect x="4" y="4" width="34" height="34" rx="17" fill="#E1E1E1"/>
<path fill-rule="evenodd" clip-rule="evenodd" d="M26.1002 17.6C26.1002 20.4167 23.8169 22.7 21.0002 22.7C18.1836 22.7 15.9002 20.4167 15.9002 17.6C15.9002 14.7833 18.1836 12.5 21.0002 12.5C23.8169 12.5 26.1002 14.7833 26.1002 17.6ZM24.4002 17.6C24.4002 19.4778 22.878 21 21.0002 21C19.1224 21 17.6002 19.4778 17.6002 17.6C17.6002 15.7222 19.1224 14.2 21.0002 14.2C22.878 14.2 24.4002 15.7222 24.4002 17.6Z" fill="#FBFBFB"/>
<path d="M21.0002 25.25C15.497 25.25 10.8081 28.5042 9.02197 33.0632C9.45708 33.4953 9.91544 33.904 10.395 34.2872C11.725 30.1015 15.8974 26.95 21.0002 26.95C26.103 26.95 30.2754 30.1015 31.6054 34.2873C32.085 33.904 32.5433 33.4953 32.9785 33.0632C31.1923 28.5042 26.5034 25.25 21.0002 25.25Z" fill="#FBFBFB"/>
<circle cx="21" cy="21" r="20" stroke="#E1E1E1" stroke-width="2"/>
</svg>
